<svg width="108" height="108" viewBox="0 0 108 108" fill="none" xmlns="http://www.w3.org/2000/svg">
<g filter="url(#filter0_d_21426_52)">
<path fill-rule="evenodd" clip-rule="evenodd" d="M44.5183 44.7711V40.3169H48.9607V44.7711H44.5183ZM53.4031 44.7711V31.4085H57.8455V44.7711H53.4031ZM62.2879 67.0423V22.5H66.7303V67.0423H62.2879ZM71.1728 58.1338V31.4085H75.6152V58.1338H71.1728ZM80.0576 49.2254V40.3169H84.5V49.2254H80.0576ZM28.7477 80.6276C25.4159 77.2313 23.75 73.2225 23.75 68.6569V49.1697H57.8455V68.6569C57.8455 73.2225 56.1796 77.2313 52.9033 80.6276C49.5715 84.0797 45.5178 85.75 40.7978 85.75C36.0777 85.75 32.024 84.0797 28.7477 80.6276ZM49.7936 77.5654C52.237 75.0042 53.5142 72.0533 53.5142 68.6569V53.5682H28.1369V68.6569C28.1369 72.0533 29.3585 75.0042 31.8574 77.5654C34.3563 80.1265 37.2994 81.4071 40.7978 81.4071C44.2962 81.4071 47.2948 80.1265 49.7936 77.5654ZM34.6339 63.4789C33.9676 63.4789 33.4122 63.2562 32.968 62.8107C32.5238 62.3653 32.3016 61.8085 32.3016 61.1404C32.3016 60.4723 32.5238 59.9155 32.968 59.4701C33.4122 59.0246 33.9676 58.8019 34.6339 58.8019C35.2447 58.8019 35.8 59.0246 36.2443 59.4701C36.7441 59.9155 36.9662 60.4723 36.9662 61.1404C36.9662 61.8085 36.7441 62.3653 36.2443 62.8107C35.8 63.2562 35.2447 63.4789 34.6339 63.4789ZM48.9052 62.8107C48.4609 63.2562 47.9056 63.4789 47.2393 63.4789C46.5174 63.4789 45.9621 63.2562 45.5178 62.8107C45.1291 62.3653 44.907 61.8085 44.907 61.1404C44.907 60.4723 45.1291 59.9155 45.5734 59.4701C46.0176 59.0246 46.5729 58.8019 47.2393 58.8019C47.9056 58.8019 48.4609 59.0246 48.9052 59.4701C49.3494 59.9155 49.5715 60.4723 49.5715 61.1404C49.5715 61.8085 49.3494 62.3653 48.9052 62.8107Z" fill="white"/>
</g>
<defs>
<filter id="filter0_d_21426_52" x="17.4" y="17.15" width="73.45" height="75.95" filterUnits="userSpaceOnUse" color-interpolation-filters="sRGB">
<feFlood flood-opacity="0" result="BackgroundImageFix"/>
<feColorMatrix in="SourceAlpha" type="matrix" values="0 0 0 0 0 0 0 0 0 0 0 0 0 0 0 0 0 0 127 0" result="hardAlpha"/>
<feOffset dy="1"/>
<feGaussianBlur stdDeviation="3.175"/>
<feComposite in2="hardAlpha" operator="out"/>
<feColorMatrix type="matrix" values="0 0 0 0 0 0 0 0 0 0 0 0 0 0 0 0 0 0 0.25 0"/>
<feBlend mode="normal" in2="BackgroundImageFix" result="effect1_dropShadow_21426_52"/>
<feBlend mode="normal" in="SourceGraphic" in2="effect1_dropShadow_21426_52" result="shape"/>
</filter>
</defs>
</svg>
